<svg xmlns="http://www.w3.org/2000/svg" viewBox="0 0 112.98 55.12"><defs><style>.cls-1{fill:#3f2e39;}</style></defs><g id="Layer_2" data-name="Layer 2"><g id="Layer_1-2" data-name="Layer 1"><g id="logo"><path class="cls-1" d="M0,50c1.27-.45,2.49-.85,3.66-1.22s2.25-.68,3.23-.95,1.85-.48,2.6-.62A10.47,10.47,0,0,1,11.27,47a3.15,3.15,0,0,1,2.42.92,4.62,4.62,0,0,1,.87,3.18c0,.36,0,1.12-.1,2.29s-.18,2.65-.31,4.42-.3,3.79-.5,6.06-.42,4.69-.67,7.24l.16,0a77,77,0,0,1,4-11.44,37.86,37.86,0,0,1,4.32-7.47,15,15,0,0,1,4.43-4.07,9,9,0,0,1,4.31-1.22,5.34,5.34,0,0,1,3.14.91,7.05,7.05,0,0,1,2.1,2.39,12.1,12.1,0,0,1,1.18,3.34,19.28,19.28,0,0,1,.37,3.8c0,1.12,0,2.32-.11,3.58s-.16,2.5-.26,3.73-.22,2.39-.34,3.49S36.06,70.19,36,71l.16,0a77.31,77.31,0,0,1,4-11.61,38,38,0,0,1,4.35-7.52,15.09,15.09,0,0,1,4.44-4.07,9,9,0,0,1,4.32-1.22,6.26,6.26,0,0,1,2.6.57A5.88,5.88,0,0,1,58.09,49a9.66,9.66,0,0,1,1.57,3.2,16.68,16.68,0,0,1,.59,4.73c0,.51,0,1.23-.09,2.13s-.14,1.91-.23,3-.19,2.28-.31,3.52-.22,2.47-.31,3.67-.16,2.33-.23,3.42-.09,2-.09,2.8a28.4,28.4,0,0,0,.17,3.41A6.42,6.42,0,0,0,59.74,81a2.19,2.19,0,0,0,1.07,1,4.23,4.23,0,0,0,1.64.28,11.53,11.53,0,0,0,2.9-.39,18.08,18.08,0,0,0,3-1.08l.51,1.39a17.24,17.24,0,0,1-2.44,1.59c-1,.53-2,1-3.1,1.47a24.56,24.56,0,0,1-3.23,1.09,11.91,11.91,0,0,1-2.85.41A3.26,3.26,0,0,1,55,86a4.76,4.76,0,0,1-1.24-2.12,13.64,13.64,0,0,1-.54-3.14q-.12-1.8-.12-3.87c0-1.66.06-3.4.17-5.23s.25-3.56.39-5.2.27-3.14.39-4.47.17-2.34.17-3a7.59,7.59,0,0,0-1-4.38,3.24,3.24,0,0,0-2.8-1.46,4.63,4.63,0,0,0-2.91,1.3A17.53,17.53,0,0,0,44.38,58a38.42,38.42,0,0,0-3,5.38,56.38,56.38,0,0,0-2.58,6.72,70.51,70.51,0,0,0-2,7.58,57.82,57.82,0,0,0-1,7.92l-5.61.7-.43,0q.3-5.62.55-10t.46-7.59c.13-2.16.24-4,.32-5.5s.12-2.74.12-3.73a8.12,8.12,0,0,0-1-4.53,3.09,3.09,0,0,0-2.64-1.53,4.87,4.87,0,0,0-3,1.28,16.46,16.46,0,0,0-3.09,3.52,37.28,37.28,0,0,0-2.94,5.33A58.91,58.91,0,0,0,16,70.18a63.87,63.87,0,0,0-1.9,7.51,60.89,60.89,0,0,0-1,7.91l-5.61.7-.43,0c.15-1.7.28-3.55.41-5.55s.24-4,.34-6.1.21-4.12.29-6.15.15-3.92.21-5.68.11-3.34.14-4.74,0-2.49,0-3.3a8.77,8.77,0,0,0-.17-1.85,2.91,2.91,0,0,0-.49-1.19A1.81,1.81,0,0,0,7,51.08a3.36,3.36,0,0,0-1.2-.19,11.89,11.89,0,0,0-2.31.27q-1.35.27-3.06.72Z" transform="translate(0 -46.62)"/><path class="cls-1" d="M113,87.7c-.88.31-1.72.59-2.53.84s-1.55.47-2.23.66-1.28.33-1.8.43a7.8,7.8,0,0,1-1.22.14,2.18,2.18,0,0,1-1.68-.64,3.15,3.15,0,0,1-.6-2.19c0-.25,0-.78.07-1.59s.12-1.82.22-3,.2-2.62.34-4.19.29-3.24.46-5l-.11,0a52,52,0,0,1-2.76,7.9,27,27,0,0,1-3,5.16A10.45,10.45,0,0,1,95.1,89a6.23,6.23,0,0,1-3,.84A3.64,3.64,0,0,1,90,89.18a4.94,4.94,0,0,1-1.45-1.65,8.08,8.08,0,0,1-.81-2.31,13.38,13.38,0,0,1-.26-2.62c0-.77,0-1.6.07-2.47s.11-1.73.19-2.58.15-1.64.23-2.4l.21-2H88a53.32,53.32,0,0,1-2.77,8,26.32,26.32,0,0,1-3,5.2,10.52,10.52,0,0,1-3.06,2.8,6.25,6.25,0,0,1-3,.85,4.31,4.31,0,0,1-1.79-.39,4.07,4.07,0,0,1-1.55-1.25,7,7,0,0,1-1.09-2.22,11.48,11.48,0,0,1-.4-3.26q0-.54.06-1.47c0-.63.1-1.32.16-2.09s.13-1.57.21-2.43.15-1.7.22-2.53.11-1.62.15-2.36.07-1.4.07-1.94a18.56,18.56,0,0,0-.12-2.35,4.46,4.46,0,0,0-.4-1.44,1.51,1.51,0,0,0-.74-.72,2.93,2.93,0,0,0-1.13-.2,7.93,7.93,0,0,0-2,.27,13.26,13.26,0,0,0-2.1.75l-.35-1a11.55,11.55,0,0,1,1.69-1.09,22.24,22.24,0,0,1,2.14-1,16.24,16.24,0,0,1,2.23-.75,8.08,8.08,0,0,1,2-.29A2.21,2.21,0,0,1,75,62.8a3.28,3.28,0,0,1,.86,1.46,9.87,9.87,0,0,1,.37,2.17c.06.83.08,1.72.08,2.67,0,1.15,0,2.35-.12,3.61s-.17,2.46-.27,3.59-.18,2.17-.26,3.09-.12,1.61-.12,2.08a5.22,5.22,0,0,0,.71,3,2.22,2.22,0,0,0,1.93,1,3.2,3.2,0,0,0,2-.9,11.77,11.77,0,0,0,2.14-2.47,26.86,26.86,0,0,0,2-3.71,39.88,39.88,0,0,0,1.79-4.65,47.56,47.56,0,0,0,1.34-5.23,39.41,39.41,0,0,0,.72-5.47l3.87-.49.3,0c-.14,2.6-.27,4.89-.38,6.89s-.23,3.75-.32,5.25-.17,2.76-.22,3.8-.09,1.89-.09,2.57a5.57,5.57,0,0,0,.72,3.13,2.11,2.11,0,0,0,1.82,1.06A3.37,3.37,0,0,0,96,84.43,11.53,11.53,0,0,0,98.14,82a25.86,25.86,0,0,0,2-3.68,41.26,41.26,0,0,0,1.76-4.58,45.75,45.75,0,0,0,1.31-5.19,42.25,42.25,0,0,0,.7-5.46l3.87-.49.3,0c-.1,1.18-.2,2.45-.28,3.84s-.17,2.79-.24,4.21-.14,2.84-.2,4.25-.1,2.71-.15,3.92-.07,2.31-.09,3.27,0,1.73,0,2.28a6.56,6.56,0,0,0,.11,1.28,2,2,0,0,0,.35.82,1.25,1.25,0,0,0,.58.44,2.35,2.35,0,0,0,.84.13,7.89,7.89,0,0,0,1.59-.19c.62-.12,1.32-.29,2.11-.5Z" transform="translate(0 -46.62)"/><circle class="cls-1" cx="105.5" cy="7.33" r="4.67"/><circle class="cls-1" cx="9.38" cy="49.28" r="5.84"/></g></g></g></svg>